<svg width="266" height="72" viewBox="0 0 266 72" fill="none" xmlns="http://www.w3.org/2000/svg">
<g clip-path="url(#clip0_4708_44320)">
<path d="M56.7805 56.4272C57.4847 56.4272 58.1888 56.5132 58.8289 56.7065C59.4904 56.8998 60.1092 57.1576 60.664 57.5012C61.2401 57.8449 61.7523 58.253 62.2217 58.7256C62.6911 59.1981 63.0966 59.7351 63.438 60.2936C63.7794 60.8521 64.0354 61.4965 64.2275 62.1408C64.4195 62.8067 64.5049 63.4941 64.5049 64.2244C64.5049 65.2984 64.2915 66.3079 63.8861 67.253C63.4806 68.1981 62.9259 69.0144 62.2217 69.7232C61.5175 70.432 60.7067 70.9905 59.7678 71.3986C58.829 71.8067 57.8261 72 56.7592 72C56.055 72 55.3508 71.9141 54.6894 71.7208C54.0279 71.5275 53.4091 71.2697 52.833 70.9261C52.2568 70.5824 51.7447 70.1743 51.2753 69.7017C50.8058 69.2292 50.4004 68.7136 50.0804 68.1337C49.7603 67.5537 49.4829 66.9523 49.3122 66.2864C49.1201 65.6206 49.0348 64.9332 49.0348 64.2244C49.0348 63.5155 49.1201 62.8067 49.3122 62.1408C49.4829 61.475 49.7603 60.8521 50.0804 60.2936C50.4004 59.7351 50.8058 59.1981 51.2753 58.7256C51.7447 58.253 52.2568 57.8449 52.833 57.5012C53.4091 57.1576 54.0279 56.8998 54.6894 56.7065C55.3508 56.5132 56.0337 56.4272 56.7592 56.4272H56.7805ZM56.7805 58.5323C55.991 58.5323 55.2655 58.6826 54.5827 58.9833C53.8999 59.284 53.3024 59.6922 52.7903 60.2077C52.2782 60.7232 51.8728 61.3246 51.574 62.012C51.2753 62.6993 51.1259 63.4511 51.1259 64.2244C51.1259 64.9977 51.2753 65.7709 51.574 66.4583C51.8728 67.1456 52.2782 67.7471 52.7903 68.2626C53.3024 68.7781 53.8999 69.1862 54.5827 69.4869C55.2655 69.7876 56.0123 69.938 56.7805 69.938C57.5487 69.938 58.2955 69.7876 58.9997 69.4869C59.6825 69.1862 60.3013 68.7781 60.8134 68.2626C61.3255 67.7471 61.7309 67.1456 62.0297 66.4583C62.3284 65.7709 62.4778 65.0191 62.4778 64.2244C62.4778 63.4296 62.3284 62.6993 62.0297 62.012C61.7309 61.3246 61.3255 60.7232 60.8134 60.2077C60.3013 59.6922 59.7038 59.284 58.9997 58.9833C58.2955 58.6826 57.57 58.5323 56.7805 58.5323Z" fill="#F3F9F1"/>
<path d="M70.5862 66.1145V66.0716C70.5862 65.3198 70.7142 64.5895 70.9916 63.9236C71.269 63.2577 71.6531 62.6778 72.1225 62.1622C72.6133 61.6682 73.1681 61.2601 73.8295 60.9809C74.491 60.7016 75.1738 60.5513 75.942 60.5513C76.7102 60.5513 77.4143 60.7016 78.0758 60.9809C78.7373 61.2601 79.3134 61.6682 79.7829 62.1622C80.2736 62.6563 80.6577 63.2577 80.9351 63.9236C81.2125 64.5895 81.3405 65.3198 81.3405 66.0716V70.84C81.3405 71.1408 81.2338 71.377 81.0418 71.5704C80.8498 71.7637 80.5937 71.8496 80.3163 71.8496C80.0389 71.8496 79.7829 71.7637 79.5695 71.5704C79.3561 71.377 79.2707 71.1408 79.2707 70.84V66.1145C79.2707 65.6205 79.1854 65.1694 79.0147 64.7398C78.844 64.3317 78.6093 63.9665 78.3105 63.6443C78.0118 63.3221 77.6704 63.0859 77.265 62.8926C76.8595 62.6992 76.4328 62.6133 75.942 62.6133C75.4512 62.6133 75.0245 62.6992 74.6404 62.8711C74.235 63.0429 73.8936 63.3007 73.5948 63.6014C73.2961 63.9236 73.0614 64.2887 72.8907 64.6969C72.72 65.1264 72.6346 65.556 72.6346 66.0286V70.7971C72.6346 71.0978 72.5493 71.3341 72.3572 71.5274C72.1652 71.7207 71.9305 71.8066 71.6317 71.8066C71.4824 71.8066 71.3543 71.7852 71.2263 71.7207C71.0983 71.6778 70.9916 71.5918 70.8849 71.5059C70.7995 71.42 70.7142 71.3126 70.6502 71.1837C70.5862 71.0548 70.5648 70.926 70.5648 70.7756V66.0501L70.5862 66.1145Z" fill="#F3F9F1"/>
<path d="M88.6382 57.5442C88.6382 57.2435 88.7235 57.0072 88.9369 56.7924C89.129 56.5991 89.3637 56.4917 89.6411 56.4917C89.7904 56.4917 89.9185 56.5132 90.0465 56.5776C90.1745 56.6206 90.2812 56.7065 90.3879 56.7924C90.4946 56.8783 90.5586 57.0072 90.6226 57.1361C90.6866 57.265 90.708 57.3939 90.708 57.5442V67.9619C90.708 68.5633 90.8787 69.0359 91.1987 69.3581C91.5188 69.6802 91.9669 69.8521 92.5217 69.8521C92.8204 69.8521 93.0552 69.9595 93.2472 70.1528C93.4392 70.3461 93.5246 70.5824 93.5246 70.8616C93.5246 71.1623 93.4392 71.3986 93.2472 71.5919C93.0552 71.7853 92.8204 71.8712 92.5217 71.8712C91.9669 71.8712 91.4548 71.7853 90.9854 71.5919C90.5159 71.3986 90.0892 71.1409 89.7478 70.7972C89.4064 70.4535 89.129 70.0239 88.9369 69.5514C88.7449 69.0788 88.6382 68.5418 88.6382 67.9404V57.5227V57.5442Z" fill="#F3F9F1"/>
<path d="M99.6273 57.9954C99.6273 57.8235 99.6487 57.6732 99.7127 57.5443C99.7767 57.3939 99.862 57.2865 99.9687 57.1791C100.075 57.0717 100.203 56.9858 100.331 56.9214C100.481 56.8569 100.63 56.8354 100.801 56.8354C100.972 56.8354 101.121 56.8569 101.249 56.9214C101.398 56.9858 101.505 57.0717 101.612 57.1791C101.718 57.2865 101.804 57.4154 101.868 57.5443C101.932 57.6946 101.953 57.845 101.953 57.9954C101.953 58.1457 101.932 58.3175 101.868 58.4464C101.804 58.5753 101.718 58.7042 101.612 58.8116C101.505 58.919 101.377 59.0049 101.249 59.0693C101.121 59.1338 100.95 59.1553 100.801 59.1553C100.652 59.1553 100.481 59.1338 100.331 59.0693C100.182 59.0049 100.075 58.919 99.9687 58.8116C99.862 58.7042 99.7767 58.5753 99.7127 58.4464C99.6487 58.3175 99.6273 58.1457 99.6273 57.9954ZM99.7554 61.6039C99.7554 61.4536 99.7767 61.3247 99.8407 61.1958C99.9047 61.067 99.9687 60.9596 100.075 60.8522C100.182 60.7662 100.289 60.6803 100.417 60.6374C100.545 60.5729 100.673 60.5514 100.822 60.5514C101.1 60.5514 101.356 60.6588 101.526 60.8522C101.718 61.0455 101.804 61.3032 101.804 61.5825V70.9047C101.804 71.1839 101.697 71.4417 101.505 71.635C101.313 71.8283 101.057 71.9357 100.78 71.9357C100.502 71.9357 100.246 71.8283 100.033 71.635C99.8194 71.4417 99.734 71.1839 99.734 70.9047V61.5825L99.7554 61.6039Z" fill="#F3F9F1"/>
<path d="M108.589 66.1145V66.0716C108.589 65.3198 108.717 64.5895 108.995 63.9236C109.272 63.2577 109.656 62.6778 110.126 62.1622C110.616 61.6682 111.171 61.2601 111.833 60.9809C112.494 60.7016 113.177 60.5513 113.945 60.5513C114.713 60.5513 115.417 60.7016 116.079 60.9809C116.74 61.2601 117.316 61.6682 117.786 62.1622C118.277 62.6563 118.661 63.2577 118.938 63.9236C119.216 64.5895 119.344 65.3198 119.344 66.0716V70.84C119.344 71.1408 119.237 71.377 119.045 71.5704C118.853 71.7637 118.597 71.8496 118.319 71.8496C118.042 71.8496 117.786 71.7637 117.573 71.5704C117.359 71.377 117.274 71.1408 117.274 70.84V66.1145C117.274 65.6205 117.188 65.1694 117.018 64.7398C116.847 64.3317 116.612 63.9665 116.314 63.6443C116.015 63.3221 115.673 63.0859 115.268 62.8926C114.863 62.6992 114.436 62.6133 113.945 62.6133C113.454 62.6133 113.028 62.6992 112.643 62.8711C112.238 63.0429 111.897 63.3007 111.598 63.6014C111.299 63.9236 111.064 64.2887 110.894 64.6969C110.723 65.1264 110.638 65.556 110.638 66.0286V70.7971C110.638 71.0978 110.552 71.3341 110.36 71.5274C110.168 71.7207 109.934 71.8066 109.635 71.8066C109.485 71.8066 109.357 71.7852 109.229 71.7207C109.101 71.6778 108.995 71.5918 108.888 71.5059C108.803 71.42 108.717 71.3126 108.653 71.1837C108.589 71.0548 108.568 70.926 108.568 70.7756V66.0501L108.589 66.1145Z" fill="#F3F9F1"/>
<path d="M128.028 67.21C128.114 67.6181 128.263 67.9832 128.476 68.3269C128.69 68.6706 128.946 68.9713 129.244 69.2076C129.543 69.4653 129.885 69.6587 130.269 69.7875C130.653 69.9379 131.037 70.0023 131.464 70.0023C131.89 70.0023 132.21 69.9594 132.467 69.8949C132.723 69.8305 133 69.7016 133.256 69.5513C133.469 69.4224 133.683 69.3579 133.875 69.3579C134.024 69.3579 134.152 69.3794 134.259 69.4439C134.387 69.5083 134.494 69.5727 134.579 69.6801C134.664 69.7875 134.75 69.8949 134.792 70.0238C134.856 70.1527 134.878 70.3031 134.878 70.4319C134.878 70.6897 134.792 70.9045 134.6 71.0978C134.408 71.2911 134.174 71.4415 133.853 71.5918C133.533 71.7207 133.171 71.8281 132.765 71.8926C132.338 71.957 131.912 72 131.464 72C130.674 72 129.949 71.8496 129.244 71.5489C128.54 71.2482 127.943 70.8401 127.431 70.3245C126.919 69.809 126.513 69.2076 126.214 68.4988C125.916 67.8114 125.766 67.0596 125.766 66.2649C125.766 65.4701 125.916 64.7183 126.214 64.031C126.513 63.3436 126.919 62.7207 127.431 62.2052C127.943 61.6897 128.562 61.2816 129.244 60.9809C129.949 60.6801 130.674 60.5298 131.464 60.5298C132.253 60.5298 132.979 60.6801 133.661 60.9809C134.344 61.2816 134.963 61.6897 135.475 62.2052C135.987 62.7207 136.393 63.3221 136.713 64.0095C137.012 64.6968 137.161 65.4486 137.182 66.2219C137.182 66.5011 137.097 66.7374 136.905 66.9307C136.713 67.1241 136.478 67.21 136.179 67.21H128.05H128.028ZM135.048 65.4701C134.984 65.0405 134.835 64.6539 134.622 64.2887C134.408 63.9236 134.152 63.6229 133.832 63.3436C133.512 63.0859 133.171 62.8711 132.765 62.7207C132.36 62.5704 131.933 62.5059 131.485 62.5059C131.037 62.5059 130.589 62.5918 130.205 62.7422C129.799 62.8926 129.458 63.1074 129.138 63.3651C128.818 63.6443 128.562 63.9451 128.37 64.3102C128.178 64.6754 128.028 65.062 127.964 65.4701H135.048Z" fill="#F3F9F1"/>
<path d="M153.612 58.21C153.612 58.0596 153.634 57.9307 153.698 57.8019C153.762 57.673 153.826 57.5656 153.933 57.4582C154.039 57.3508 154.146 57.2863 154.253 57.2219C154.359 57.1575 154.509 57.136 154.637 57.136C154.765 57.136 154.914 57.1575 155.042 57.2219C155.17 57.2863 155.277 57.3508 155.384 57.4367C155.49 57.5226 155.554 57.6515 155.618 57.7804C155.682 57.9093 155.704 58.0381 155.704 58.1885V60.4868H160.334C160.611 60.4868 160.867 60.5942 161.059 60.809C161.252 61.0238 161.358 61.2601 161.358 61.5608C161.358 61.8615 161.252 62.0763 161.059 62.2696C160.867 62.463 160.611 62.5489 160.313 62.5489H155.682V66.3723C155.682 66.8663 155.768 67.3388 155.96 67.7684C156.152 68.198 156.408 68.5847 156.728 68.9069C157.048 69.2291 157.432 69.4868 157.859 69.6587C158.307 69.852 158.776 69.9379 159.267 69.9379C159.715 69.9379 160.121 69.8735 160.526 69.7446C160.91 69.6157 161.273 69.4009 161.593 69.1002C161.849 68.8639 162.105 68.7565 162.382 68.7565C162.489 68.7565 162.617 68.778 162.724 68.821C162.831 68.8639 162.937 68.9284 163.023 69.0143C163.108 69.1002 163.172 69.2076 163.236 69.315C163.3 69.4224 163.321 69.5727 163.321 69.7016C163.321 69.852 163.279 70.0238 163.215 70.1742C163.151 70.3245 163.065 70.4749 162.937 70.5823C162.446 71.0548 161.892 71.3985 161.273 71.6348C160.654 71.8711 159.993 71.9785 159.267 71.9785C158.478 71.9785 157.731 71.8281 157.048 71.5489C156.365 71.2696 155.746 70.8615 155.234 70.346C154.722 69.8305 154.317 69.2505 154.018 68.5632C153.719 67.8758 153.57 67.1241 153.57 66.3293V58.1885L153.612 58.21Z" fill="#F3F9F1"/>
<path d="M169.424 61.5823C169.424 61.3031 169.531 61.0453 169.723 60.852C169.915 60.6587 170.171 60.5513 170.448 60.5513C170.726 60.5513 170.982 60.6587 171.174 60.852C171.387 61.0453 171.473 61.3031 171.473 61.5823V66.5441C171.473 67.0167 171.579 67.4463 171.75 67.8544C171.921 68.2625 172.155 68.6276 172.454 68.9284C172.753 69.2291 173.094 69.4654 173.5 69.6587C173.905 69.8305 174.332 69.9164 174.823 69.9164C175.313 69.9164 175.719 69.8305 176.103 69.6587C176.487 69.4868 176.807 69.2291 177.084 68.9284C177.362 68.6276 177.575 68.241 177.725 67.8329C177.874 67.4248 177.959 66.9737 177.959 66.5011V61.6038C177.959 61.4534 177.981 61.3245 178.045 61.1957C178.109 61.0668 178.173 60.9594 178.279 60.8735C178.386 60.7875 178.493 60.7016 178.621 60.6587C178.749 60.5942 178.877 60.5727 179.026 60.5727C179.325 60.5727 179.56 60.6801 179.752 60.8735C179.944 61.0668 180.029 61.3245 180.029 61.6038V66.5226C180.029 67.2744 179.901 68.0047 179.645 68.6706C179.389 69.3365 179.026 69.9164 178.578 70.4319C178.13 70.926 177.575 71.3341 176.935 71.6133C176.295 71.8926 175.612 72.0429 174.844 72.0429C174.076 72.0429 173.372 71.8926 172.71 71.6133C172.049 71.3341 171.473 70.926 171.003 70.4319C170.512 69.9379 170.128 69.3579 169.851 68.6706C169.573 68.0047 169.424 67.2959 169.424 66.5226V61.6038V61.5823Z" fill="#F3F9F1"/>
<path d="M186.879 58.21C186.879 58.0596 186.9 57.9307 186.964 57.8019C187.028 57.673 187.092 57.5656 187.199 57.4582C187.305 57.3508 187.412 57.2863 187.519 57.2219C187.625 57.1575 187.775 57.136 187.903 57.136C188.031 57.136 188.18 57.1575 188.308 57.2219C188.436 57.2863 188.543 57.3508 188.65 57.4367C188.756 57.5226 188.82 57.6515 188.884 57.7804C188.948 57.9093 188.97 58.0381 188.97 58.1885V60.4868H193.6C193.877 60.4868 194.133 60.5942 194.325 60.809C194.518 61.0238 194.624 61.2601 194.624 61.5608C194.624 61.8615 194.518 62.0763 194.325 62.2696C194.133 62.463 193.877 62.5489 193.579 62.5489H188.948V66.3723C188.948 66.8663 189.034 67.3388 189.226 67.7684C189.418 68.198 189.674 68.5847 189.994 68.9069C190.314 69.2291 190.698 69.4868 191.125 69.6587C191.573 69.852 192.042 69.9379 192.533 69.9379C192.981 69.9379 193.387 69.8735 193.792 69.7446C194.176 69.6157 194.539 69.4009 194.859 69.1002C195.115 68.8639 195.371 68.7565 195.648 68.7565C195.755 68.7565 195.883 68.778 195.99 68.821C196.097 68.8639 196.203 68.9284 196.289 69.0143C196.374 69.1002 196.438 69.2076 196.502 69.315C196.566 69.4224 196.587 69.5727 196.587 69.7016C196.587 69.852 196.545 70.0238 196.481 70.1742C196.417 70.3245 196.331 70.4749 196.203 70.5823C195.712 71.0548 195.158 71.3985 194.539 71.6348C193.92 71.8711 193.259 71.9785 192.533 71.9785C191.744 71.9785 190.997 71.8281 190.314 71.5489C189.631 71.2696 189.012 70.8615 188.5 70.346C187.988 69.8305 187.583 69.2505 187.284 68.5632C186.985 67.8758 186.836 67.1241 186.836 66.3293V58.1885L186.879 58.21Z" fill="#F3F9F1"/>
<path d="M202.093 66.2864C202.093 65.4916 202.242 64.7613 202.541 64.0525C202.839 63.3436 203.245 62.7422 203.757 62.2267C204.269 61.7112 204.866 61.3031 205.571 61.0023C206.275 60.7016 207 60.5513 207.768 60.5513C208.537 60.5513 209.305 60.7016 209.988 61.0023C210.67 61.3031 211.289 61.7112 211.801 62.2267C212.313 62.7422 212.719 63.3436 213.018 64.0525C213.316 64.7398 213.466 65.4916 213.466 66.2864C213.466 67.0811 213.316 67.8114 213.018 68.5202C212.719 69.2076 212.313 69.8305 211.801 70.346C211.289 70.8615 210.692 71.2696 209.988 71.5704C209.305 71.8711 208.558 72.0214 207.768 72.0214C206.979 72.0214 206.253 71.8711 205.571 71.5704C204.888 71.2696 204.29 70.8615 203.757 70.346C203.223 69.8305 202.839 69.2291 202.541 68.5202C202.242 67.8329 202.093 67.0811 202.093 66.2864ZM204.162 66.2864C204.162 66.7804 204.248 67.2529 204.44 67.704C204.632 68.1551 204.888 68.5202 205.208 68.8639C205.528 69.1861 205.912 69.4653 206.36 69.6372C206.808 69.8305 207.278 69.9164 207.768 69.9164C208.259 69.9164 208.75 69.8305 209.198 69.6372C209.646 69.4439 210.009 69.1861 210.35 68.8639C210.67 68.5417 210.926 68.1551 211.119 67.704C211.311 67.2529 211.396 66.8019 211.396 66.2864C211.396 65.7708 211.311 65.3198 211.119 64.8687C210.926 64.4391 210.67 64.0525 210.35 63.7088C210.03 63.3866 209.646 63.1288 209.198 62.9355C208.75 62.7422 208.281 62.6563 207.768 62.6563C207.256 62.6563 206.787 62.7422 206.36 62.9355C205.912 63.1288 205.549 63.3866 205.208 63.7088C204.888 64.031 204.632 64.4176 204.44 64.8687C204.248 65.3198 204.162 65.7708 204.162 66.2864Z" fill="#F3F9F1"/>
<path d="M219.782 66.5441C219.782 65.7279 219.931 64.9546 220.251 64.2243C220.571 63.494 220.998 62.8711 221.531 62.3126C222.065 61.7541 222.705 61.346 223.409 61.0238C224.135 60.7016 224.903 60.5513 225.714 60.5513H225.778C226.119 60.5513 226.397 60.6372 226.567 60.852C226.738 61.0453 226.845 61.3031 226.845 61.5823C226.845 61.8615 226.738 62.1193 226.525 62.3126C226.311 62.5059 226.055 62.6133 225.778 62.6133H225.714C225.18 62.6133 224.689 62.7207 224.22 62.9355C223.751 63.1503 223.345 63.4296 222.982 63.7732C222.62 64.1384 222.342 64.5465 222.15 65.019C221.937 65.4916 221.852 66.0071 221.852 66.5441V70.8401C221.852 71.1408 221.766 71.377 221.574 71.5704C221.382 71.7637 221.147 71.8711 220.87 71.8711C220.721 71.8711 220.593 71.8496 220.465 71.7852C220.337 71.7422 220.23 71.6563 220.123 71.5704C220.016 71.4844 219.952 71.377 219.888 71.2482C219.824 71.1193 219.803 70.9904 219.803 70.8401V66.5441H219.782Z" fill="#F3F9F1"/>
<path d="M0.597465 36.4726C0.192042 35.6348 0 34.8401 0 34.1098C0 33.4869 0.128028 32.8854 0.405423 32.3699C0.682817 31.8329 1.02423 31.3819 1.42965 30.9738C1.83507 30.5871 2.32585 30.2649 2.83796 30.0501C3.37141 29.8353 3.88352 29.7279 4.39564 29.7279C5.12113 29.7279 5.80395 29.9427 6.46543 30.3938C7.1269 30.8449 7.80972 31.4893 8.49254 32.3699C9.45275 33.6158 10.5623 34.5609 11.8213 35.2053C13.0802 35.8496 14.5952 36.1718 16.3663 36.1718C17.1985 36.1718 18.0093 36.0644 18.8201 35.8711C19.631 35.6778 20.3565 35.3771 20.9966 35.0119C21.6368 34.6468 22.1489 34.1742 22.533 33.6158C22.9171 33.0573 23.1091 32.4559 23.1091 31.7685C23.1091 30.8878 22.9171 30.2005 22.5116 29.685C22.1275 29.1695 21.6154 28.7828 21.018 28.4821C20.4205 28.1814 19.7377 27.9666 18.9909 27.8377C18.244 27.7088 17.4972 27.58 16.793 27.4726C14.3178 27.0644 12.12 26.506 10.1569 25.7542C8.19381 25.0239 6.55078 24.0788 5.18514 22.9618C3.81951 21.8234 2.77394 20.5131 2.02711 18.9881C1.30162 17.4845 0.938874 15.7446 0.938874 13.7685C0.938874 11.7924 1.3443 9.94511 2.15514 8.26969C2.96599 6.59428 4.05423 5.13366 5.46254 3.90931C6.84951 2.68497 8.4712 1.73986 10.3276 1.05251C12.184 0.36516 14.1471 0.0214844 16.1956 0.0214844C17.5825 0.0214844 18.9482 0.171842 20.2925 0.451079C21.6368 0.730315 22.9171 1.13843 24.112 1.6969C25.3069 2.2339 26.3952 2.92125 27.3767 3.75895C28.3583 4.59666 29.1691 5.54177 29.8092 6.63724C29.9799 6.91647 30.108 7.19571 30.172 7.49642C30.236 7.79714 30.2787 8.07638 30.2787 8.37709C30.2787 8.93557 30.172 9.47256 29.9586 9.96659C29.7452 10.4606 29.4465 10.8902 29.0624 11.2769C28.6783 11.642 28.2302 11.9427 27.7181 12.1575C27.206 12.3723 26.6512 12.4797 26.0324 12.4797C25.5843 12.4797 25.1362 12.4153 24.7094 12.2864C24.2613 12.1575 23.8346 11.9427 23.4078 11.6635C22.8104 11.2554 22.2556 10.8902 21.7861 10.5895C21.3167 10.2673 20.8259 10.0096 20.3138 9.77327C19.8017 9.537 19.2469 9.38664 18.6068 9.25776C17.9666 9.15036 17.1985 9.08592 16.2809 9.08592C15.278 9.08592 14.3605 9.2148 13.571 9.45108C12.7815 9.68736 12.12 10.0096 11.5652 10.4391C11.0104 10.8473 10.5837 11.3628 10.3063 11.9212C10.0289 12.4797 9.85817 13.1026 9.85817 13.7685C9.85817 14.6277 10.0716 15.315 10.4983 15.8091C10.9251 16.3246 11.5439 16.7542 12.3761 17.0979C13.2082 17.4415 14.2111 17.7422 15.4274 18C16.6437 18.2578 18.0306 18.537 19.5883 18.8807C21.146 19.2243 22.661 19.6754 24.1547 20.2769C25.6483 20.8568 26.9713 21.6516 28.1449 22.6396C29.2971 23.6277 30.236 24.8306 30.9615 26.2482C31.687 27.6659 32.0497 29.3628 32.0497 31.3389C32.0497 33.315 31.6443 35.0549 30.8548 36.7518C30.0653 38.4272 28.9344 39.9093 27.5261 41.1766C26.0964 42.4439 24.4107 43.432 22.4476 44.1838C20.4845 44.9141 18.3507 45.2792 16.0462 45.2792C14.2538 45.2792 12.5468 45.043 10.9251 44.5919C9.30338 44.1193 7.83106 43.4964 6.48676 42.7017C5.14247 41.9069 3.96888 40.9833 2.94465 39.9308C1.94176 38.8783 1.15225 37.7399 0.576127 36.537L0.597465 36.4726Z" fill="#FAA32C"/>
<path d="M50.5071 45.2147C48.1813 45.2147 45.9834 44.8066 43.935 43.9689C41.8865 43.1312 40.1155 41.9713 38.6005 40.5107C37.0855 39.0501 35.8905 37.3102 34.9943 35.3126C34.0981 33.315 33.6714 31.1455 33.6714 28.8257C33.6714 26.5059 34.1195 24.315 34.9943 22.2959C35.8905 20.2553 37.0855 18.494 38.6218 16.9904C40.1582 15.4868 41.9292 14.3054 43.9777 13.4463C46.0261 12.5871 48.2026 12.1575 50.5071 12.1575C52.8116 12.1575 54.8174 12.5226 56.7591 13.2744C58.7009 14.0262 60.4079 15.1432 61.8376 16.6253C62.371 17.1837 62.7765 17.8066 63.0539 18.451C63.3313 19.1169 63.4593 19.7398 63.4593 20.3842C63.4593 21.093 63.3099 21.7159 62.9899 22.2529C62.6698 22.7899 62.2857 23.2625 61.8376 23.6491C61.3682 24.0358 60.8987 24.3365 60.3653 24.5298C59.8532 24.7231 59.3837 24.8305 58.9783 24.8305C58.1675 24.8305 57.442 24.6372 56.7805 24.2291C56.119 23.8424 55.5002 23.3914 54.9027 22.9188C54.0919 22.3174 53.3237 21.8878 52.5555 21.673C51.8087 21.4582 51.0405 21.3293 50.251 21.3293C49.2055 21.3293 48.2239 21.5226 47.3064 21.9307C46.3889 22.3389 45.6207 22.8758 44.9592 23.5632C44.2977 24.2506 43.7856 25.0238 43.4015 25.926C43.0388 26.8281 42.8467 27.7517 42.8467 28.7183C42.8467 29.5775 43.0174 30.4367 43.3589 31.2959C43.7003 32.1551 44.1697 32.9284 44.7672 33.6372C45.3646 34.346 46.0901 34.9045 46.9223 35.3556C47.7545 35.8066 48.6507 36.0429 49.6536 36.0644C49.7603 36.0644 49.867 36.0644 49.9736 36.0644C50.0803 36.0644 50.187 36.0644 50.2937 36.0644C51.0832 36.0644 51.8514 35.957 52.5982 35.7207C53.3451 35.4844 54.1132 35.0763 54.9027 34.4319C55.4789 33.9594 56.0977 33.5298 56.7591 33.1432C57.3993 32.7565 58.1248 32.5632 58.9143 32.5632C59.341 32.5632 59.8105 32.6491 60.3226 32.8424C60.8347 33.0358 61.3255 33.315 61.7949 33.7016C62.2644 34.0883 62.6484 34.5608 62.9472 35.0978C63.2672 35.6563 63.4166 36.2792 63.4166 36.988C63.4166 37.6109 63.2886 38.2553 63.0325 38.8997C62.7765 39.5441 62.371 40.1455 61.8376 40.6825C60.4079 42.1646 58.7009 43.2816 56.7165 44.0334C54.732 44.7852 52.6622 45.1503 50.4858 45.1503L50.5071 45.2147Z" fill="#FAA32C"/>
<path d="M89.1503 28.5251C89.1503 27.5371 89.001 26.592 88.7022 25.7113C88.4035 24.8306 87.9767 24.0574 87.4006 23.4344C86.8458 22.7901 86.163 22.2745 85.3735 21.9094C84.584 21.5442 83.6878 21.3509 82.7062 21.3509C81.7247 21.3509 80.7218 21.5228 79.6976 21.8664C78.6734 22.2101 77.7345 22.6827 76.9023 23.2841C76.0701 23.8855 75.366 24.6158 74.8325 25.4535C74.2991 26.2913 74.0217 27.1934 74.0217 28.16V40.6612C74.0217 41.2626 73.915 41.8426 73.6803 42.3796C73.4455 42.9165 73.1468 43.3891 72.7414 43.7972C72.336 44.2053 71.8665 44.5275 71.3331 44.7638C70.7996 45.0001 70.2022 45.129 69.5834 45.129C68.9646 45.129 68.3671 45.0001 67.8123 44.7638C67.2575 44.5275 66.7881 44.2053 66.3827 43.7972C65.9772 43.3891 65.6572 42.9165 65.4224 42.3796C65.1877 41.8426 65.0597 41.2626 65.0597 40.6612V4.91893C65.0597 4.29602 65.1877 3.69459 65.4224 3.13612C65.6572 2.57765 65.9772 2.10509 66.404 1.69698C66.8094 1.28886 67.3002 0.966666 67.855 0.73039C68.4098 0.494113 68.9859 0.365234 69.5834 0.365234C70.1808 0.365234 70.7569 0.494113 71.2904 0.73039C71.8239 0.966666 72.2933 1.28886 72.6987 1.69698C73.1041 2.10509 73.4242 2.57765 73.6589 3.13612C73.8936 3.69459 74.0217 4.27454 74.0217 4.91893V16.0239C75.2593 14.907 76.6036 14.0478 78.0759 13.4034C79.5482 12.759 81.0846 12.4368 82.7062 12.4368C84.8827 12.4368 86.9098 12.8664 88.8089 13.7041C90.708 14.5418 92.3297 15.7017 93.7167 17.1624C95.1036 18.623 96.1705 20.3199 96.9601 22.2745C97.7496 24.2292 98.1337 26.3127 98.1337 28.5251V40.7901C98.1337 41.413 98.0056 42.0144 97.7709 42.5299C97.5362 43.0669 97.2161 43.518 96.7894 43.9261C96.3839 44.3127 95.8932 44.6349 95.3597 44.8497C94.8263 45.086 94.2501 45.1934 93.6527 45.1934C93.0552 45.1934 92.4791 45.086 91.9243 44.8497C91.3695 44.6134 90.9001 44.3127 90.4946 43.9261C90.0892 43.5395 89.7691 43.0669 89.5344 42.5299C89.2997 41.9929 89.1717 41.413 89.1717 40.7901V28.5251H89.1503Z" fill="#FAA32C"/>
<path d="M169.317 36.3651C169.936 36.3651 170.534 36.4725 171.088 36.7088C171.643 36.945 172.113 37.2457 172.475 37.6539C172.859 38.062 173.158 38.5345 173.393 39.0715C173.628 39.6085 173.734 40.1885 173.734 40.7899C173.734 41.3913 173.628 42.0142 173.393 42.5512C173.158 43.0882 172.859 43.5608 172.475 43.9474C172.091 44.334 171.622 44.6348 171.088 44.871C170.534 45.1073 169.957 45.2147 169.317 45.2147C167.738 45.2147 166.266 44.957 164.858 44.42C163.449 43.883 162.233 43.1312 161.166 42.1646C160.121 41.198 159.267 40.0381 158.648 38.6849C158.029 37.3317 157.731 35.8496 157.731 34.2386V5.28393C157.731 4.66102 157.837 4.05959 158.072 3.5226C158.307 2.9856 158.606 2.51305 158.99 2.10494C159.374 1.69682 159.843 1.37463 160.355 1.13835C160.867 0.902072 161.422 0.773193 162.041 0.773193C162.66 0.773193 163.257 0.902072 163.833 1.13835C164.388 1.37463 164.879 1.69682 165.306 2.10494C165.732 2.51305 166.074 2.9856 166.309 3.5226C166.565 4.05959 166.671 4.66102 166.671 5.28393V34.4319C166.714 35.0978 166.97 35.5703 167.418 35.8925C167.888 36.2147 168.506 36.3651 169.296 36.3651H169.317Z" fill="#FAA32C"/>
<path d="M177.575 17.6135C177.575 15.2937 178.002 13.0598 178.834 10.9548C179.666 8.84975 180.819 7.02398 182.291 5.47744C183.763 3.9309 185.492 2.72804 187.497 1.84737C189.503 0.966699 191.658 0.515625 193.963 0.515625C196.267 0.515625 198.444 0.966699 200.471 1.84737C202.498 2.72804 204.269 3.9309 205.805 5.47744C207.342 7.02398 208.537 8.84975 209.412 10.9548C210.286 13.0598 210.713 15.2937 210.713 17.6135C210.713 19.9333 210.265 22.1242 209.412 24.1863C208.537 26.2483 207.342 28.0311 205.805 29.5777C204.269 31.1242 202.498 32.3271 200.471 33.2077C198.444 34.0884 196.267 34.5395 193.963 34.5395C192.747 34.5395 191.594 34.3891 190.506 34.0884C189.418 33.7877 188.372 33.3796 187.412 32.8641C186.452 32.3486 185.534 31.7471 184.702 31.0383C183.87 30.3295 183.102 29.5777 182.398 28.74L182.291 44.3342C182.291 45.0431 182.078 45.623 181.651 46.1171C181.224 46.5896 180.648 46.8474 179.965 46.8474C179.304 46.8474 178.749 46.6111 178.279 46.1171C177.81 45.6445 177.575 45.0431 177.575 44.3342V17.6135ZM194.134 29.7066C195.798 29.7066 197.356 29.3844 198.828 28.7614C200.3 28.1171 201.58 27.2579 202.669 26.1624C203.757 25.0669 204.632 23.7782 205.272 22.2961C205.912 20.8354 206.232 19.2459 206.232 17.549C206.232 15.8521 205.912 14.2841 205.272 12.7805C204.632 11.2555 203.757 9.98818 202.669 8.91419C201.58 7.86169 200.279 7.02398 198.828 6.42255C197.356 5.82111 195.798 5.49892 194.134 5.49892C192.469 5.49892 190.954 5.79963 189.503 6.42255C188.052 7.04546 186.793 7.90465 185.726 9.00011C184.659 10.0956 183.806 11.4058 183.166 12.9309C182.547 14.456 182.227 16.0455 182.227 17.6779C182.227 19.3104 182.547 20.8999 183.166 22.3605C183.806 23.8211 184.638 25.0884 185.726 26.1624C186.815 27.2364 188.052 28.0956 189.503 28.74C190.954 29.3629 192.49 29.6851 194.134 29.6851V29.7066Z" fill="#FAA32C"/>
<path d="M229.832 47.2555C227.485 47.2555 225.266 46.8044 223.217 45.9023C221.169 45.0001 219.376 43.7758 217.861 42.2292C216.346 40.6827 215.152 38.8569 214.255 36.7949C213.359 34.7113 212.932 32.4989 212.932 30.1147C212.932 27.7304 213.38 25.475 214.255 23.3915C215.152 21.308 216.346 19.4822 217.861 17.9142C219.376 16.3462 221.148 15.1218 223.217 14.2197C225.287 13.3175 227.464 12.8665 229.832 12.8665C232.201 12.8665 234.42 13.3175 236.468 14.2197C238.517 15.1218 240.309 16.3462 241.824 17.8927C243.339 19.4392 244.534 21.265 245.409 23.37C246.284 25.475 246.732 27.7304 246.732 30.1147V44.592C246.732 45.2793 246.497 45.8378 246.028 46.3104C245.558 46.7829 245.003 47.0192 244.321 47.0192C243.638 47.0192 243.083 46.7829 242.678 46.3104C242.272 45.8378 242.059 45.2579 242.059 44.592L242.016 42.0574C240.48 43.6684 238.666 44.9571 236.618 45.8808C234.548 46.8044 232.307 47.277 229.853 47.277L229.832 47.2555ZM229.832 42.5729C231.582 42.5729 233.204 42.2507 234.697 41.5848C236.191 40.919 237.492 40.0383 238.559 38.8999C239.626 37.7614 240.501 36.4297 241.12 34.9261C241.739 33.4225 242.037 31.8116 242.037 30.1147C242.037 28.4178 241.739 26.7853 241.12 25.2603C240.501 23.7352 239.648 22.4034 238.559 21.2865C237.471 20.1696 236.191 19.2674 234.697 18.6015C233.204 17.9357 231.582 17.6135 229.832 17.6135C228.082 17.6135 226.503 17.9357 225.01 18.6015C223.516 19.2674 222.236 20.1481 221.148 21.2865C220.059 22.4249 219.184 23.7352 218.566 25.2603C217.925 26.7853 217.627 28.4178 217.627 30.1147C217.627 31.8116 217.947 33.4011 218.566 34.9261C219.184 36.4512 220.059 37.7614 221.148 38.8999C222.236 40.0383 223.537 40.9404 225.01 41.5848C226.503 42.2507 228.104 42.5729 229.832 42.5729Z" fill="#FAA32C"/>
<path d="M263.695 42.2722C264.378 42.2722 264.933 42.487 265.36 42.9381C265.787 43.3892 266 43.9262 266 44.592C266 45.2579 265.787 45.8164 265.381 46.246C264.954 46.6756 264.421 46.8689 263.738 46.8689C262.074 46.8689 260.559 46.5896 259.15 46.0312C257.742 45.4727 256.547 44.6565 255.502 43.6254C254.477 42.5729 253.667 41.3271 253.112 39.8665C252.536 38.4059 252.258 36.7519 252.258 34.9476V3.07175C252.258 2.3844 252.472 1.82592 252.898 1.37485C253.325 0.923777 253.88 0.6875 254.52 0.6875C255.16 0.6875 255.694 0.923777 256.184 1.37485C256.654 1.82592 256.91 2.40588 256.91 3.07175V34.8832C256.91 37.2245 257.507 39.0503 258.702 40.3391C259.897 41.6278 261.562 42.2722 263.695 42.2722Z" fill="#FAA32C"/>
<path d="M125.425 16.1526H106.562C107.586 15.3579 108.696 14.692 109.912 14.1765C113.668 12.5226 118.277 12.5226 122.054 14.1765C123.291 14.7135 124.401 15.3579 125.425 16.1526Z" fill="#0165A5"/>
<path d="M124.187 10.2029L126.705 9.92367V15.1218C125.51 14.1337 124.166 13.3389 122.694 12.6946C118.511 10.8688 113.433 10.8688 109.272 12.6946C107.842 13.3175 106.519 14.1122 105.346 15.0788V9.42964L102.892 8.63489V15.9809C103.191 16.1528 103.425 16.4535 103.468 16.7972C103.489 16.8616 103.489 16.9261 103.489 16.9905C103.489 17.3342 103.319 17.6564 103.063 17.8712V19.9117C103.063 19.9117 102.999 20.0836 102.913 20.1051C102.913 20.1051 102.892 20.1265 102.871 20.1265C102.764 20.1265 102.679 20.0191 102.679 19.9117V19.1599H102.487V20.7709L102.423 20.8998C102.423 20.8998 102.359 20.9642 102.295 20.9642C102.188 20.9642 102.081 20.8783 102.081 20.7709V18.8592H101.889V20.1695C101.889 20.1695 101.804 20.3628 101.697 20.3628H101.676C101.569 20.3628 101.484 20.2769 101.484 20.1695V17.8067C101.27 17.5919 101.142 17.3127 101.142 16.9905C101.142 16.5609 101.377 16.1957 101.697 16.0024V8.24825L96.0638 6.42248L116.058 0.193359L135.881 6.46544L124.187 10.2029Z" fill="#FAA32C"/>
<path d="M155.49 28.6968C155.49 30.8662 155.085 32.9068 154.274 34.797C153.442 36.6872 152.332 38.3626 150.924 39.7803C149.516 41.198 147.83 42.3364 145.952 43.1526C142.175 44.8066 137.566 44.8066 133.811 43.1526C132.296 42.4868 130.909 41.6276 129.693 40.5965C129.394 40.3388 129.116 40.0595 128.839 39.7803L128.519 39.4581C127.239 38.1049 126.214 36.5369 125.468 34.797C125.02 33.7445 124.678 32.649 124.486 31.5106C124.337 30.7159 124.251 29.8782 124.251 29.0834V28.3316C124.209 27.3221 123.974 26.3555 123.59 25.4533C123.377 24.9808 123.12 24.5082 122.843 24.0786C122.544 23.649 122.203 23.2194 121.819 22.8328C121.072 22.1025 120.197 21.5011 119.194 21.0715C118.191 20.6419 117.103 20.4271 115.951 20.4271C114.799 20.4271 113.774 20.6419 112.772 21.0715C111.79 21.5011 110.915 22.1025 110.147 22.8328C109.4 23.5846 108.803 24.4653 108.355 25.4533C107.928 26.4629 107.693 27.5583 107.693 28.6968C107.693 29.8352 107.928 30.9307 108.355 31.9402C108.803 32.9283 109.4 33.8089 110.147 34.5607C110.894 35.3125 111.79 35.8925 112.772 36.3221C114.777 37.1813 117.188 37.1598 119.194 36.3221C120.197 35.8925 121.072 35.3125 121.819 34.5607C121.99 35.0763 122.203 35.6132 122.416 36.1073C123.206 37.9545 124.251 39.6299 125.532 41.112C124.486 41.9283 123.313 42.6156 122.054 43.1526C118.277 44.8066 113.668 44.8066 109.912 43.1526C108.034 42.3364 106.349 41.198 104.94 39.7803C103.532 38.3626 102.401 36.6872 101.569 34.797C100.758 32.9068 100.353 30.8662 100.353 28.6968C100.353 26.5273 100.758 24.4868 101.59 22.5751C101.846 21.9951 102.124 21.4366 102.423 20.8996L102.487 20.7708C102.636 20.5345 102.764 20.3197 102.913 20.1049C102.999 20.0834 103.063 19.9975 103.063 19.9116V19.8686C103.618 19.0309 104.236 18.2576 104.94 17.5488C105.453 17.0333 105.986 16.5822 106.562 16.1526C107.586 15.3579 108.696 14.692 109.912 14.1765C113.668 12.5226 118.277 12.5226 122.054 14.1765C123.291 14.7135 124.401 15.3579 125.425 16.1526C125.681 16.3459 125.937 16.5393 126.172 16.7541C126.471 17.0118 126.748 17.2696 127.025 17.5488L127.345 17.8925C128.604 19.2457 129.629 20.8137 130.375 22.5751C130.824 23.6276 131.165 24.7445 131.357 25.8829C131.506 26.6992 131.592 27.5369 131.613 28.3101V29.0619C131.634 30.0715 131.869 31.0381 132.253 31.9402C132.467 32.4128 132.723 32.8853 133 33.3149C133.32 33.766 133.661 34.1956 134.046 34.5607C134.792 35.3125 135.689 35.8925 136.67 36.3221C138.676 37.1813 141.087 37.1598 143.072 36.3221C144.074 35.8925 144.971 35.3125 145.717 34.5607C146.464 33.8089 147.062 32.9283 147.489 31.9402C147.915 30.9307 148.15 29.8352 148.15 28.6968C148.15 27.5583 147.915 26.4629 147.489 25.4533C147.04 24.4653 146.443 23.5846 145.717 22.8328C144.971 22.1025 144.074 21.5011 143.072 21.0715C141.087 20.2338 138.676 20.2123 136.67 21.0715C135.667 21.5011 134.792 22.1025 134.046 22.8328H134.024C133.854 22.3173 133.661 21.7803 133.427 21.2648C132.637 19.4175 131.592 17.7206 130.333 16.2385C131.378 15.4223 132.552 14.7135 133.811 14.1765C137.566 12.5226 142.154 12.5226 145.952 14.1765C147.83 14.9927 149.516 16.1311 150.924 17.5488C152.311 18.9879 153.442 20.6848 154.274 22.5751C155.085 24.4868 155.49 26.5488 155.49 28.6968Z" fill="#F3F9F1"/>
</g>
<defs>
<clipPath id="clip0_4708_44320">
<rect width="266" height="72" fill="white"/>
</clipPath>
</defs>
</svg>
